<?xml version="1.0" encoding="utf-8"?>
<!-- Generator: Adobe Illustrator 18.0.0, SVG Export Plug-In . SVG Version: 6.00 Build 0)  -->
<!DOCTYPE svg PUBLIC "-//W3C//DTD SVG 1.1//EN" "http://www.w3.org/Graphics/SVG/1.1/DTD/svg11.dtd">
<svg version="1.1" id="Layer_1" xmlns="http://www.w3.org/2000/svg" xmlns:xlink="http://www.w3.org/1999/xlink" x="0px" y="0px"
	 viewBox="0 0 64 64" enable-background="new 0 0 64 64" xml:space="preserve">
<g>
	<circle cx="13" cy="42.2" r="6"/>
	<circle cx="50" cy="42.2" r="6"/>
	<path d="M58.7,23.6c-4.7-5.4-11.5-8.4-18.6-8.4c-5.2,0-10.3,1.7-14.4,5l-1.3,1c-2.7,2.1-5.7,3.6-9,4.3l-12,2.9
		C1.3,28.9,0,30.7,0,32.7l0,6.7c0,1,0.8,1.7,1.7,1.7h2.8c0.5-4.2,4.1-7.5,8.4-7.5c4.3,0,7.9,3.2,8.4,7.4c6.4,0,13.8,0,20.2,0
		c0.5-4.2,4.1-7.4,8.4-7.4c4.4,0,7.9,3.3,8.4,7.5h3.8c1,0,1.7-0.8,1.7-1.7V26C62,26,60,25.1,58.7,23.6z"/>
</g>
</svg>
