<?xml version="1.0" encoding="utf-8"?>
<!-- Generator: Adobe Illustrator 18.0.0, SVG Export Plug-In . SVG Version: 6.00 Build 0)  -->
<!DOCTYPE svg PUBLIC "-//W3C//DTD SVG 1.1//EN" "http://www.w3.org/Graphics/SVG/1.1/DTD/svg11.dtd">
<svg version="1.1" id="Layer_1" xmlns="http://www.w3.org/2000/svg" xmlns:xlink="http://www.w3.org/1999/xlink" x="0px" y="0px"
	 viewBox="0 0 64 64" enable-background="new 0 0 64 64" xml:space="preserve">
<g>
	<g>
		<g>
			<path d="M47,0H17c-1.7,0-3,1.3-3,3v58c0,1.7,1.3,3,3,3h30c1.7,0,3-1.3,3-3V3C50,1.3,48.7,0,47,0z M29,4h6c0.5,0,1,0.5,1,1
				s-0.5,1-1,1h-6c-0.5,0-1-0.5-1-1S28.5,4,29,4z M25,4c0.6,0,1,0.4,1,1c0,0.6-0.4,1-1,1c-0.6,0-1-0.4-1-1C24,4.4,24.4,4,25,4z
				 M33.8,60.3c-2.7,2-5.7-1-3.7-3.7C32.8,54.6,35.9,57.7,33.8,60.3z M45,53H19V10h26V53z"/>
		</g>
	</g>
</g>
</svg>
